<?xml version="1.0" encoding="UTF-8"?>
<!DOCTYPE svg PUBLIC "-//W3C//DTD SVG 1.1//EN" "http://www.w3.org/Graphics/SVG/1.1/DTD/svg11.dtd">
<svg xmlns="http://www.w3.org/2000/svg" version="1.1" width="40px" height="40px" style="shape-rendering:geometricPrecision; text-rendering:geometricPrecision; image-rendering:optimizeQuality; fill-rule:evenodd; clip-rule:evenodd" xmlns:xlink="http://www.w3.org/1999/xlink">
<g><path style="opacity:0.8" fill="#c49b8f" d="M 20.5,-0.5 C 23.8333,-0.5 27.1667,-0.5 30.5,-0.5C 30.5,0.166667 30.5,0.833333 30.5,1.5C 29.4937,1.93767 29.4937,2.60433 30.5,3.5C 29.8333,3.5 29.1667,3.5 28.5,3.5C 26.2359,1.31873 23.5692,-0.0146018 20.5,-0.5 Z"/></g>
<g><path style="opacity:1" fill="#b37e76" d="M 8.5,-0.5 C 11.8333,-0.5 15.1667,-0.5 18.5,-0.5C 16.3432,0.406658 14.0098,1.07332 11.5,1.5C 9.95568,1.70311 8.62235,2.36977 7.5,3.5C 6.53705,3.03017 6.53705,2.3635 7.5,1.5C 7.83333,0.833333 8.16667,0.166667 8.5,-0.5 Z"/></g>
<g><path style="opacity:1" fill="#fdcd23" d="M 18.5,-0.5 C 19.1667,-0.5 19.8333,-0.5 20.5,-0.5C 23.5692,-0.0146018 26.2359,1.31873 28.5,3.5C 27.8333,3.83333 27.1667,4.16667 26.5,4.5C 21.8333,3.16667 17.1667,3.16667 12.5,4.5C 11.5084,4.67158 10.8417,4.33825 10.5,3.5C 10.8333,2.83333 11.1667,2.16667 11.5,1.5C 14.0098,1.07332 16.3432,0.406658 18.5,-0.5 Z"/></g>
<g><path style="opacity:0.757" fill="#a26158" d="M 30.5,1.5 C 33.3667,1.36922 35.0334,2.70256 35.5,5.5C 35.6716,6.49162 35.3382,7.15829 34.5,7.5C 34.1667,5.16667 32.8333,3.83333 30.5,3.5C 29.4937,2.60433 29.4937,1.93767 30.5,1.5 Z"/></g>
<g><path style="opacity:0.922" fill="#ddc2ae" d="M 7.5,1.5 C 6.53705,2.3635 6.53705,3.03017 7.5,3.5C 8.62235,2.36977 9.95568,1.70311 11.5,1.5C 11.1667,2.16667 10.8333,2.83333 10.5,3.5C 8.66754,4.24848 7.00087,5.24848 5.5,6.5C 5.59121,4.30228 4.92454,3.96895 3.5,5.5C 3.83333,3.16667 5.16667,1.83333 7.5,1.5 Z"/></g>
<g><path style="opacity:1" fill="#e1d3ce" d="M 30.5,3.5 C 32.8333,3.83333 34.1667,5.16667 34.5,7.5C 32.8333,6.5 31.5,5.16667 30.5,3.5 Z"/></g>
<g><path style="opacity:1" fill="#fdcb26" d="M 28.5,3.5 C 29.1667,3.5 29.8333,3.5 30.5,3.5C 31.5,5.16667 32.8333,6.5 34.5,7.5C 35.4552,9.74571 36.1218,12.079 36.5,14.5C 35.8333,13.8333 35.1667,13.1667 34.5,12.5C 32.5,9.16667 29.8333,6.5 26.5,4.5C 27.1667,4.16667 27.8333,3.83333 28.5,3.5 Z"/></g>
<g><path style="opacity:1" fill="#fac214" d="M 10.5,3.5 C 10.8417,4.33825 11.5084,4.67158 12.5,4.5C 10.8608,5.4725 9.52743,6.80584 8.5,8.5C 7.83333,8.5 7.5,8.83333 7.5,9.5C 6.01489,11.2488 5.01489,13.2488 4.5,15.5C 4.56745,14.0413 4.23411,12.7079 3.5,11.5C 3.5,10.8333 3.5,10.1667 3.5,9.5C 4.90632,9.02694 5.57298,8.02694 5.5,6.5C 7.00087,5.24848 8.66754,4.24848 10.5,3.5 Z"/></g>
<g><path style="opacity:1" fill="#dc7b06" d="M 26.5,4.5 C 29.8333,6.5 32.5,9.16667 34.5,12.5C 36.2963,17.8582 35.2963,22.5249 31.5,26.5C 31.1667,26.5 30.8333,26.5 30.5,26.5C 31.6948,24.2487 32.6948,21.9154 33.5,19.5C 33.3653,15.5698 32.0319,12.2365 29.5,9.5C 29.5,8.83333 29.1667,8.5 28.5,8.5C 27.9423,7.21009 26.9423,6.37675 25.5,6C 23.5,5.5 21.5,5 19.5,4.5C 18.5836,4.54272 17.9169,4.87605 17.5,5.5C 14.509,5.16628 12.1757,6.16628 10.5,8.5C 10.1667,8.5 9.83333,8.5 9.5,8.5C 9.16667,8.5 8.83333,8.5 8.5,8.5C 9.52743,6.80584 10.8608,5.4725 12.5,4.5C 17.1667,3.16667 21.8333,3.16667 26.5,4.5 Z"/></g>
<g><path style="opacity:1" fill="#e4990c" d="M 17.5,5.5 C 17.7822,6.77765 18.4489,7.77765 19.5,8.5C 16.5,8.5 13.5,8.5 10.5,8.5C 12.1757,6.16628 14.509,5.16628 17.5,5.5 Z"/></g>
<g><path style="opacity:1" fill="#e79c0e" d="M 28.5,8.5 C 26.5,8.5 24.5,8.5 22.5,8.5C 21.5,8.5 20.5,8.5 19.5,8.5C 18.4489,7.77765 17.7822,6.77765 17.5,5.5C 17.9169,4.87605 18.5836,4.54272 19.5,4.5C 21.5,5 23.5,5.5 25.5,6C 26.9423,6.37675 27.9423,7.21009 28.5,8.5 Z"/></g>
<g><path style="opacity:1" fill="#f3efc7" d="M 5.5,6.5 C 5.57298,8.02694 4.90632,9.02694 3.5,9.5C 3.42702,7.97306 4.09368,6.97306 5.5,6.5 Z"/></g>
<g><path style="opacity:0.757" fill="#b58171" d="M 5.5,6.5 C 4.09368,6.97306 3.42702,7.97306 3.5,9.5C 3.5,10.1667 3.5,10.8333 3.5,11.5C 2.83333,13.1667 2.16667,14.8333 1.5,16.5C 1.78448,14.5853 1.45115,12.9187 0.5,11.5C 0.833333,10.8333 1.16667,10.1667 1.5,9.5C 1.22911,7.6203 1.89578,6.28696 3.5,5.5C 4.92454,3.96895 5.59121,4.30228 5.5,6.5 Z"/></g>
<g><path style="opacity:1" fill="#f3e6bc" d="M 9.5,9.5 C 9.5,9.16667 9.5,8.83333 9.5,8.5C 9.83333,8.5 10.1667,8.5 10.5,8.5C 13.5,8.5 16.5,8.5 19.5,8.5C 19.7394,10.4672 19.4061,12.3005 18.5,14C 19.3172,16.3725 20.6505,16.8725 22.5,15.5C 22.5,16.1667 22.5,16.8333 22.5,17.5C 22.1667,17.5 21.8333,17.5 21.5,17.5C 19.8007,17.4729 18.4674,16.8062 17.5,15.5C 17.8333,13.5 18.1667,11.5 18.5,9.5C 15.8333,9.5 13.1667,9.5 10.5,9.5C 10.1667,9.5 9.83333,9.5 9.5,9.5 Z"/></g>
<g><path style="opacity:1" fill="#f7ebc3" d="M 22.5,8.5 C 24.5,8.5 26.5,8.5 28.5,8.5C 29.1667,8.5 29.5,8.83333 29.5,9.5C 29.5,10.8333 29.5,12.1667 29.5,13.5C 26.8079,15.2026 24.8079,17.536 23.5,20.5C 23.1667,20.5 22.8333,20.5 22.5,20.5C 22.5,19.8333 22.5,19.1667 22.5,18.5C 24.636,16.1877 26.636,13.6877 28.5,11C 27.0953,9.73082 25.4286,9.23082 23.5,9.5C 23.4208,10.9305 23.7542,12.2638 24.5,13.5C 24.1445,14.5223 23.4778,15.189 22.5,15.5C 22.5,13.1667 22.5,10.8333 22.5,8.5 Z"/></g>
<g><path style="opacity:1" fill="#fed448" d="M 10.5,9.5 C 13.1667,9.5 15.8333,9.5 18.5,9.5C 18.1667,11.5 17.8333,13.5 17.5,15.5C 16.6255,13.31 14.9589,12.31 12.5,12.5C 10.9519,12.1788 10.2852,11.1788 10.5,9.5 Z"/></g>
<g><path style="opacity:1" fill="#c06725" d="M 19.5,8.5 C 20.5,8.5 21.5,8.5 22.5,8.5C 22.5,10.8333 22.5,13.1667 22.5,15.5C 20.6505,16.8725 19.3172,16.3725 18.5,14C 19.4061,12.3005 19.7394,10.4672 19.5,8.5 Z"/></g>
<g><path style="opacity:1" fill="#fdcf3f" d="M 22.5,18.5 C 22.5,18.1667 22.5,17.8333 22.5,17.5C 22.5,16.8333 22.5,16.1667 22.5,15.5C 23.4778,15.189 24.1445,14.5223 24.5,13.5C 23.7542,12.2638 23.4208,10.9305 23.5,9.5C 25.4286,9.23082 27.0953,9.73082 28.5,11C 26.636,13.6877 24.636,16.1877 22.5,18.5 Z"/></g>
<g><path style="opacity:0.129" fill="#f6e7e4" d="M -0.5,9.5 C 0.166667,9.5 0.833333,9.5 1.5,9.5C 1.16667,10.1667 0.833333,10.8333 0.5,11.5C 0.5,12.1667 0.5,12.8333 0.5,13.5C 0.166667,13.5 -0.166667,13.5 -0.5,13.5C -0.5,12.1667 -0.5,10.8333 -0.5,9.5 Z"/></g>
<g><path style="opacity:1" fill="#ebd6c1" d="M 9.5,9.5 C 9.83333,9.5 10.1667,9.5 10.5,9.5C 10.2852,11.1788 10.9519,12.1788 12.5,12.5C 13.6693,15.5113 15.336,18.178 17.5,20.5C 17.6347,22.5542 16.968,24.2209 15.5,25.5C 14.596,26.209 14.2627,27.209 14.5,28.5C 14.1667,28.5 13.8333,28.5 13.5,28.5C 13.366,26.7085 13.6993,25.0418 14.5,23.5C 15.5735,22.7494 15.7401,21.7494 15,20.5C 12.6017,17.0367 10.7683,13.3701 9.5,9.5 Z"/></g>
<g><path style="opacity:1" fill="#fdd03e" d="M 12.5,12.5 C 14.9589,12.31 16.6255,13.31 17.5,15.5C 18.4674,16.8062 19.8007,17.4729 21.5,17.5C 21.0825,18.2216 20.4158,18.7216 19.5,19C 20.5171,20.0495 20.6838,21.2161 20,22.5C 19.5831,21.244 18.7498,20.5774 17.5,20.5C 15.336,18.178 13.6693,15.5113 12.5,12.5 Z"/></g>
<g><path style="opacity:0.867" fill="#c79c93" d="M 35.5,5.5 C 37.0737,6.98417 38.407,8.65084 39.5,10.5C 39.5,11.5 39.5,12.5 39.5,13.5C 38.1667,13.8333 38.1667,14.1667 39.5,14.5C 39.5,14.8333 39.5,15.1667 39.5,15.5C 38.8333,15.5 38.5,15.8333 38.5,16.5C 38.1667,16.5 37.8333,16.5 37.5,16.5C 36.6618,16.1583 36.3284,15.4916 36.5,14.5C 36.1218,12.079 35.4552,9.74571 34.5,7.5C 35.3382,7.15829 35.6716,6.49162 35.5,5.5 Z"/></g>
<g><path style="opacity:1" fill="#b33f0b" d="M 8.5,8.5 C 8.83333,8.5 9.16667,8.5 9.5,8.5C 9.5,8.83333 9.5,9.16667 9.5,9.5C 10.7683,13.3701 12.6017,17.0367 15,20.5C 15.7401,21.7494 15.5735,22.7494 14.5,23.5C 13.9348,21.58 12.9348,19.9133 11.5,18.5C 8.86171,16.161 7.52837,13.161 7.5,9.5C 7.5,8.83333 7.83333,8.5 8.5,8.5 Z"/></g>
<g><path style="opacity:1" fill="#ffd724" d="M 3.5,11.5 C 4.23411,12.7079 4.56745,14.0413 4.5,15.5C 3.83333,17.1667 3.16667,18.8333 2.5,20.5C 1.76589,19.2921 1.43255,17.9587 1.5,16.5C 2.16667,14.8333 2.83333,13.1667 3.5,11.5 Z"/></g>
<g><path style="opacity:1" fill="#e19215" d="M 29.5,13.5 C 29.5,14.5 29.5,15.5 29.5,16.5C 28.7611,16.369 28.0944,16.5357 27.5,17C 26.6006,18.6516 25.6006,20.1516 24.5,21.5C 24.1667,21.5 23.8333,21.5 23.5,21.5C 23.5,21.1667 23.5,20.8333 23.5,20.5C 24.8079,17.536 26.8079,15.2026 29.5,13.5 Z"/></g>
<g><path style="opacity:1" fill="#da6d02" d="M 7.5,9.5 C 7.52837,13.161 8.86171,16.161 11.5,18.5C 11.4732,21.3903 10.3065,22.3903 8,21.5C 7.5899,22.9007 7.0899,24.234 6.5,25.5C 5.21543,22.4115 4.54877,19.0781 4.5,15.5C 5.01489,13.2488 6.01489,11.2488 7.5,9.5 Z"/></g>
<g><path style="opacity:1" fill="#e79c10" d="M 29.5,16.5 C 31.4305,16.7706 32.7638,17.7706 33.5,19.5C 32.6948,21.9154 31.6948,24.2487 30.5,26.5C 28.9382,26.2671 27.6049,25.6005 26.5,24.5C 25.8333,23.5 25.1667,22.5 24.5,21.5C 25.6006,20.1516 26.6006,18.6516 27.5,17C 28.0944,16.5357 28.7611,16.369 29.5,16.5 Z"/></g>
<g><path style="opacity:1" fill="#e89f12" d="M 29.5,9.5 C 32.0319,12.2365 33.3653,15.5698 33.5,19.5C 32.7638,17.7706 31.4305,16.7706 29.5,16.5C 29.5,15.5 29.5,14.5 29.5,13.5C 29.5,12.1667 29.5,10.8333 29.5,9.5 Z"/></g>
<g><path style="opacity:1" fill="#edd8ba" d="M 37.5,16.5 C 37.8333,16.5 38.1667,16.5 38.5,16.5C 38.1667,19.1667 37.8333,21.8333 37.5,24.5C 35.8474,27.1305 34.1807,29.7972 32.5,32.5C 30.5168,33.4706 28.5168,34.4706 26.5,35.5C 25.2921,36.2341 23.9587,36.5674 22.5,36.5C 23.1667,35.8333 23.8333,35.1667 24.5,34.5C 26.7802,33.3599 29.1136,32.1932 31.5,31C 32.2524,30.3292 32.5858,29.4959 32.5,28.5C 35.6656,25.2248 37.3322,21.2248 37.5,16.5 Z"/></g>
<g><path style="opacity:0.949" fill="#932f15" d="M 0.5,11.5 C 1.45115,12.9187 1.78448,14.5853 1.5,16.5C 0.876052,16.9169 0.542718,17.5836 0.5,18.5C 1.17123,21.1849 1.8379,23.8516 2.5,26.5C 2.5,27.5 2.5,28.5 2.5,29.5C 2.16667,29.5 1.83333,29.5 1.5,29.5C 1.20414,27.597 0.53747,25.9303 -0.5,24.5C -0.5,21.1667 -0.5,17.8333 -0.5,14.5C 0.166667,14.5 0.5,14.1667 0.5,13.5C 0.5,12.8333 0.5,12.1667 0.5,11.5 Z"/></g>
<g><path style="opacity:1" fill="#f2e1bc" d="M 1.5,16.5 C 1.43255,17.9587 1.76589,19.2921 2.5,20.5C 5.06685,30.7815 11.4002,35.4482 21.5,34.5C 22.5,34.5 23.5,34.5 24.5,34.5C 23.8333,35.1667 23.1667,35.8333 22.5,36.5C 20.5,36.5 18.5,36.5 16.5,36.5C 14.079,36.1218 11.7457,35.4552 9.5,34.5C 9.02694,33.0937 8.02694,32.427 6.5,32.5C 5.52544,30.2048 4.19211,28.2048 2.5,26.5C 1.8379,23.8516 1.17123,21.1849 0.5,18.5C 0.542718,17.5836 0.876052,16.9169 1.5,16.5 Z"/></g>
<g><path style="opacity:1" fill="#fdcf1a" d="M 34.5,12.5 C 35.1667,13.1667 35.8333,13.8333 36.5,14.5C 36.3284,15.4916 36.6618,16.1583 37.5,16.5C 37.3322,21.2248 35.6656,25.2248 32.5,28.5C 32.1667,28.5 31.8333,28.5 31.5,28.5C 31.5,27.8333 31.5,27.1667 31.5,26.5C 35.2963,22.5249 36.2963,17.8582 34.5,12.5 Z"/></g>
<g><path style="opacity:1" fill="#cf5e02" d="M 11.5,18.5 C 12.9348,19.9133 13.9348,21.58 14.5,23.5C 13.6993,25.0418 13.366,26.7085 13.5,28.5C 11.857,28.5198 10.5237,27.8532 9.5,26.5C 8.81654,26.8627 8.14987,27.1961 7.5,27.5C 7.16667,26.8333 6.83333,26.1667 6.5,25.5C 7.0899,24.234 7.5899,22.9007 8,21.5C 10.3065,22.3903 11.4732,21.3903 11.5,18.5 Z"/></g>
<g><path style="opacity:1" fill="#9f472e" d="M 39.5,15.5 C 39.5,18.8333 39.5,22.1667 39.5,25.5C 38.6618,25.8417 38.3284,26.5084 38.5,27.5C 38.1667,27.5 37.8333,27.5 37.5,27.5C 37.5,26.5 37.5,25.5 37.5,24.5C 37.8333,21.8333 38.1667,19.1667 38.5,16.5C 38.5,15.8333 38.8333,15.5 39.5,15.5 Z"/></g>
<g><path style="opacity:1" fill="#fecd36" d="M 21.5,17.5 C 21.8333,17.5 22.1667,17.5 22.5,17.5C 22.5,17.8333 22.5,18.1667 22.5,18.5C 22.5,19.1667 22.5,19.8333 22.5,20.5C 22.0605,24.601 19.7272,26.601 15.5,26.5C 15.5,26.1667 15.5,25.8333 15.5,25.5C 16.968,24.2209 17.6347,22.5542 17.5,20.5C 18.7498,20.5774 19.5831,21.244 20,22.5C 20.6838,21.2161 20.5171,20.0495 19.5,19C 20.4158,18.7216 21.0825,18.2216 21.5,17.5 Z"/></g>
<g><path style="opacity:1" fill="#ffd955" d="M 22.5,20.5 C 22.6741,22.861 23.0074,25.1944 23.5,27.5C 20.6146,27.8064 17.9479,27.4731 15.5,26.5C 19.7272,26.601 22.0605,24.601 22.5,20.5 Z"/></g>
<g><path style="opacity:1" fill="#fcc819" d="M 4.5,15.5 C 4.54877,19.0781 5.21543,22.4115 6.5,25.5C 6.83333,26.1667 7.16667,26.8333 7.5,27.5C 9.75598,30.4053 12.756,32.072 16.5,32.5C 17.9187,33.4511 19.5853,33.7845 21.5,33.5C 21.5,33.8333 21.5,34.1667 21.5,34.5C 11.4002,35.4482 5.06685,30.7815 2.5,20.5C 3.16667,18.8333 3.83333,17.1667 4.5,15.5 Z"/></g>
<g><path style="opacity:0.067" fill="#eae0dd" d="M -0.5,24.5 C 0.53747,25.9303 1.20414,27.597 1.5,29.5C 0.833333,29.5 0.166667,29.5 -0.5,29.5C -0.5,27.8333 -0.5,26.1667 -0.5,24.5 Z"/></g>
<g><path style="opacity:1" fill="#f0d8aa" d="M 22.5,20.5 C 22.8333,20.5 23.1667,20.5 23.5,20.5C 23.5,20.8333 23.5,21.1667 23.5,21.5C 24.9331,23.5582 25.5997,25.8915 25.5,28.5C 24.5,28.5 23.5,28.5 22.5,28.5C 20.1667,28.5 17.8333,28.5 15.5,28.5C 15.1667,28.5 14.8333,28.5 14.5,28.5C 14.2627,27.209 14.596,26.209 15.5,25.5C 15.5,25.8333 15.5,26.1667 15.5,26.5C 17.9479,27.4731 20.6146,27.8064 23.5,27.5C 23.0074,25.1944 22.6741,22.861 22.5,20.5 Z"/></g>
<g><path style="opacity:1" fill="#da6f03" d="M 26.5,24.5 C 27.6049,25.6005 28.9382,26.2671 30.5,26.5C 30.8333,26.5 31.1667,26.5 31.5,26.5C 31.5,27.1667 31.5,27.8333 31.5,28.5C 30.1667,29.1667 28.8333,29.8333 27.5,30.5C 26.6586,28.6208 26.3253,26.6208 26.5,24.5 Z"/></g>
<g><path style="opacity:1" fill="#d96a03" d="M 13.5,28.5 C 13.8333,28.5 14.1667,28.5 14.5,28.5C 14.8333,28.5 15.1667,28.5 15.5,28.5C 15.9114,30.772 17.078,31.1053 19,29.5C 20.1685,30.0085 21.0019,30.8419 21.5,32C 19.8659,32.4935 18.1992,32.6602 16.5,32.5C 12.756,32.072 9.75598,30.4053 7.5,27.5C 8.14987,27.1961 8.81654,26.8627 9.5,26.5C 10.5237,27.8532 11.857,28.5198 13.5,28.5 Z"/></g>
<g><path style="opacity:1" fill="#dd7b0c" d="M 15.5,28.5 C 17.8333,28.5 20.1667,28.5 22.5,28.5C 22.5,29.5 22.5,30.5 22.5,31.5C 23.5,31.5 24.5,31.5 25.5,31.5C 24.3285,32.3446 22.9952,33.0113 21.5,33.5C 19.5853,33.7845 17.9187,33.4511 16.5,32.5C 18.1992,32.6602 19.8659,32.4935 21.5,32C 21.0019,30.8419 20.1685,30.0085 19,29.5C 17.078,31.1053 15.9114,30.772 15.5,28.5 Z"/></g>
<g><path style="opacity:1" fill="#b34406" d="M 2.5,26.5 C 4.19211,28.2048 5.52544,30.2048 6.5,32.5C 5.66175,32.8417 5.32842,33.5084 5.5,34.5C 4.11028,33.1007 3.11028,31.4341 2.5,29.5C 2.5,28.5 2.5,27.5 2.5,26.5 Z"/></g>
<g><path style="opacity:1" fill="#d86604" d="M 23.5,21.5 C 23.8333,21.5 24.1667,21.5 24.5,21.5C 25.1667,22.5 25.8333,23.5 26.5,24.5C 26.3253,26.6208 26.6586,28.6208 27.5,30.5C 27.1583,31.3382 26.4916,31.6716 25.5,31.5C 24.5,31.5 23.5,31.5 22.5,31.5C 22.5,30.5 22.5,29.5 22.5,28.5C 23.5,28.5 24.5,28.5 25.5,28.5C 25.5997,25.8915 24.9331,23.5582 23.5,21.5 Z"/></g>
<g><path style="opacity:1" fill="#b64909" d="M 37.5,24.5 C 37.5,25.5 37.5,26.5 37.5,27.5C 36.9213,30.3311 35.588,32.6644 33.5,34.5C 33.6716,33.5084 33.3382,32.8417 32.5,32.5C 34.1807,29.7972 35.8474,27.1305 37.5,24.5 Z"/></g>
<g><path style="opacity:0.059" fill="#b5928f" d="M 37.5,27.5 C 37.8333,27.5 38.1667,27.5 38.5,27.5C 38.0068,31.634 36.0068,34.634 32.5,36.5C 32.8333,35.8333 33.1667,35.1667 33.5,34.5C 35.588,32.6644 36.9213,30.3311 37.5,27.5 Z"/></g>
<g><path style="opacity:1" fill="#fdcc2b" d="M 31.5,28.5 C 31.8333,28.5 32.1667,28.5 32.5,28.5C 32.5858,29.4959 32.2524,30.3292 31.5,31C 29.1136,32.1932 26.7802,33.3599 24.5,34.5C 23.5,34.5 22.5,34.5 21.5,34.5C 21.5,34.1667 21.5,33.8333 21.5,33.5C 22.9952,33.0113 24.3285,32.3446 25.5,31.5C 26.4916,31.6716 27.1583,31.3382 27.5,30.5C 28.8333,29.8333 30.1667,29.1667 31.5,28.5 Z"/></g>
<g><path style="opacity:0.424" fill="#ceb2b3" d="M 1.5,29.5 C 1.83333,29.5 2.16667,29.5 2.5,29.5C 3.11028,31.4341 4.11028,33.1007 5.5,34.5C 6.83333,35.8333 8.16667,37.1667 9.5,38.5C 4.75663,37.3469 2.08996,34.3469 1.5,29.5 Z"/></g>
<g><path style="opacity:1" fill="#bc5414" d="M 6.5,32.5 C 8.02694,32.427 9.02694,33.0937 9.5,34.5C 10.1355,36.7946 11.4689,38.4613 13.5,39.5C 12.1667,39.5 10.8333,39.5 9.5,39.5C 9.5,39.1667 9.5,38.8333 9.5,38.5C 8.16667,37.1667 6.83333,35.8333 5.5,34.5C 5.32842,33.5084 5.66175,32.8417 6.5,32.5 Z"/></g>
<g><path style="opacity:1" fill="#b95017" d="M 32.5,32.5 C 33.3382,32.8417 33.6716,33.5084 33.5,34.5C 33.1667,35.1667 32.8333,35.8333 32.5,36.5C 30.9731,36.427 29.9731,37.0937 29.5,38.5C 29.5,38.8333 29.5,39.1667 29.5,39.5C 28.1667,39.5 26.8333,39.5 25.5,39.5C 26.4293,38.6851 27.4293,37.8518 28.5,37C 27.5842,36.7216 26.9175,36.2216 26.5,35.5C 28.5168,34.4706 30.5168,33.4706 32.5,32.5 Z"/></g>
<g><path style="opacity:1" fill="#ca5c01" d="M 9.5,34.5 C 11.7457,35.4552 14.079,36.1218 16.5,36.5C 16.2178,37.7777 15.5511,38.7777 14.5,39.5C 14.1667,39.5 13.8333,39.5 13.5,39.5C 11.4689,38.4613 10.1355,36.7946 9.5,34.5 Z"/></g>
<g><path style="opacity:1" fill="#cc640b" d="M 26.5,35.5 C 26.9175,36.2216 27.5842,36.7216 28.5,37C 27.4293,37.8518 26.4293,38.6851 25.5,39.5C 21.8333,39.5 18.1667,39.5 14.5,39.5C 15.5511,38.7777 16.2178,37.7777 16.5,36.5C 18.5,36.5 20.5,36.5 22.5,36.5C 23.9587,36.5674 25.2921,36.2341 26.5,35.5 Z"/></g>
<g><path style="opacity:0.122" fill="#b49b93" d="M 32.5,36.5 C 32.0269,37.9063 31.0269,38.573 29.5,38.5C 29.9731,37.0937 30.9731,36.427 32.5,36.5 Z"/></g>
</svg>
